<?xml version="1.0" encoding="utf-8"?>
<!-- Generated by IcoMoon.io -->
<!DOCTYPE svg PUBLIC "-//W3C//DTD SVG 1.1//EN" "http://www.w3.org/Graphics/SVG/1.1/DTD/svg11.dtd">
<svg version="1.1" xmlns="http://www.w3.org/2000/svg" xmlns:xlink="http://www.w3.org/1999/xlink" width="24" height="24" viewBox="0 0 24 24">
<g id="icomoon-ignore">
	<line stroke-width="1" x1="" y1="" x2="" y2="" stroke="#449FDB" opacity=""></line>
</g>
	<path d="M12 0l-12 7.5h24l-12-7.5zM18.75 9l0.75 1.5v9h3v-9l0.75-1.5h-4.5zM12.75 9l0.75 1.5v9h3v-9l0.75-1.5h-4.5zM6.75 9l0.75 1.5v9h3v-9l0.75-1.5h-4.5zM0.75 9l0.75 1.5v9h3v-9l0.75-1.5h-4.5zM0.75 21l-0.75 3h24l-0.75-3h-22.5zM13.5 4.5c0 0.828-0.672 1.5-1.5 1.5s-1.5-0.672-1.5-1.5 0.672-1.5 1.5-1.5c0.828 0 1.5 0.672 1.5 1.5z" fill="#ffffff"></path>
</svg>
