<?xml version="1.0" encoding="utf-8"?>
<!-- Generated by IcoMoon.io -->
<!DOCTYPE svg PUBLIC "-//W3C//DTD SVG 1.1//EN" "http://www.w3.org/Graphics/SVG/1.1/DTD/svg11.dtd">
<svg version="1.1" xmlns="http://www.w3.org/2000/svg" xmlns:xlink="http://www.w3.org/1999/xlink" width="24" height="24" viewBox="0 0 24 24">
<g id="icomoon-ignore">
	<line stroke-width="1" x1="" y1="" x2="" y2="" stroke="#449FDB" opacity=""></line>
</g>
	<path d="M16.5 0h-9l-4.5 3v6h18v-6l-4.5-3zM15 7.5h-1.5v-1c0-0.275-0.225-0.5-0.5-0.5h-2c-0.275 0-0.5 0.225-0.5 0.5v1h-1.5v-2.5c0-0.275 0.225-0.5 0.5-0.5h5c0.275 0 0.5 0.225 0.5 0.5v2.5zM3 16.5h18v-6h-18v6zM9 12.5c0-0.275 0.225-0.5 0.5-0.5h5c0.275 0 0.5 0.225 0.5 0.5v2.5h-1.5v-1c0-0.275-0.225-0.5-0.5-0.5h-2c-0.275 0-0.5 0.225-0.5 0.5v1h-1.5v-2.5zM3 24h18v-6h-18v6zM9 20c0-0.275 0.225-0.5 0.5-0.5h5c0.275 0 0.5 0.225 0.5 0.5v2.5h-1.5v-1c0-0.275-0.225-0.5-0.5-0.5h-2c-0.275 0-0.5 0.225-0.5 0.5v1h-1.5v-2.5z" fill="#ffffff"></path>
</svg>
